<svg xmlns="http://www.w3.org/2000/svg" viewBox="0 0 800 440" width="100%">
  <defs>
    <linearGradient id="liquid-gold-base" x1="0%" y1="100%" x2="100%" y2="0%">
      <stop offset="0%" stop-color="#4A3411" stop-opacity="0.1"/>
      <stop offset="50%" stop-color="#C5923C" stop-opacity="0.4"/>
      <stop offset="85%" stop-color="#E5A93C" stop-opacity="0.7"/>
      <stop offset="100%" stop-color="#FFF5D6" stop-opacity="0.9"/>
    </linearGradient>

    <linearGradient id="glass-caustic" x1="30%" y1="0%" x2="70%" y2="100%">
      <stop offset="0%" stop-color="#FFFFFF" stop-opacity="0.8"/>
      <stop offset="20%" stop-color="#E5A93C" stop-opacity="0.3"/>
      <stop offset="60%" stop-color="#ffffff" stop-opacity="0.05"/>
      <stop offset="100%" stop-color="#9A7432" stop-opacity="0.4"/>
    </linearGradient>
  </defs>

  <g transform="translate(400, 200)">
    
    <path d="M-60,-80 C-110,-40 -120,40 -60,90 C-20,120 -80,160 -120,200 L120,200 C80,160 20,120 60,90 C120,40 110,-40 60,-80 C20,-110 -20,-110 -60,-80 Z" fill="url(#liquid-gold-base)" fill-opacity="0.4" />

    <path d="M-45,-75 C-90,-45 -95,30 -50,75 C-15,105 -60,140 -100,180 C-40,185 40,185 100,180 C60,140 15,105 50,75 C95,30 90,-45 45,-75 C15,-100 -15,-100 -45,-75 Z" fill="url(#glass-caustic)" />
    
    <path d="M-30,-70 C-60,-45 -65,10 -35,50 C-20,70 -40,110 -70,140 C-30,142 30,142 70,140 C40,110 20,70 35,50 C65,10 60,-45 30,-70 Z" fill="#FFFFFF" fill-opacity="0.15" />
    
    <path d="M-45,-40 Q-70,0 -35,40" fill="none" stroke="#FFFFFF" stroke-width="1.5" stroke-opacity="0.7" />
    <path d="M40,-30 Q60,10 30,50" fill="none" stroke="#E5A93C" stroke-width="1" stroke-opacity="0.5" />
    <path d="M-10,-90 Q0,-60 10,-90" fill="none" stroke="#FFFFFF" stroke-width="2" stroke-opacity="0.8" />
  </g>

  <g opacity="0.85">
    <path d="M 0,380 C 150,340 220,420 400,380 C 480,340 550,410 700,380 C 750,370 780,390 800,380 L800,440 L0,440 Z" fill="url(#liquid-gold-base)" fill-opacity="0.6"/>
    <path d="M 0,390 Q 200,350 420,395 T 800,390" fill="none" stroke="#FFFFFF" stroke-width="1.5" stroke-opacity="0.5" />
    <path d="M 150,375 Q 350,410 550,370" fill="none" stroke="#E5A93C" stroke-width="0.8" stroke-opacity="0.4" />
  </g>

  <g transform="translate(320, 110)">
    <polygon points="0,-15 2,-2 15,0 2,2 0,15 -2,2 -15,0 -2,-2" fill="#FFFFFF" />
  </g>
  <g transform="translate(400, 95)">
    <polygon points="0,-25 3,-3 25,0 3,3 0,25 -3,3 -25,0 -3,-3" fill="#FFFFFF" />
    <circle cx="0" cy="0" r="10" fill="#FFFFFF" fill-opacity="0.2"/>
  </g>
  <g transform="translate(480, 240)">
    <polygon points="0,-12 2,-2 12,0 2,2 0,12 -2,2 -12,0 -2,-2" fill="#FFFFFF" />
  </g>
  <g transform="translate(280, 375)" opacity="0.7">
    <polygon points="0,-8 1,-1 8,0 1,1 0,8 -1,1 -8,0 -1,-1" fill="#FFFFFF" />
  </g>
  <g transform="translate(520, 385)" opacity="0.7">
    <polygon points="0,-10 1,-1 10,0 1,1 0,10 -1,1 -10,0 -1,-1" fill="#E5A93C" />
  </g>

  <circle cx="330" cy="160" r="3" fill="#FFFFFF" fill-opacity="0.4"/>
  <circle cx="305" cy="220" r="1.5" fill="#E5A93C" fill-opacity="0.6"/>
  <circle cx="495" cy="140" r="2.5" fill="#FFFFFF" fill-opacity="0.3"/>
  <circle cx="475" cy="105" r="1" fill="#FFFFFF" fill-opacity="0.8"/>
</svg>
