<svg xmlns="http://www.w3.org/2000/svg" viewBox="0 0 800 380" width="100%">
  <defs>
    <linearGradient id="glass-gold" x1="0%" y1="0%" x2="100%" y2="100%">
      <stop offset="0%" stop-color="#FFFFFF" stop-opacity="0.7"/>
      <stop offset="30%" stop-color="#E5A93C" stop-opacity="0.4"/>
      <stop offset="70%" stop-color="#9A7432" stop-opacity="0.1"/>
      <stop offset="100%" stop-color="#E5A93C" stop-opacity="0.5"/>
    </linearGradient>
  </defs>

  <path d="M 60,190 C 220,70 310,310 460,190 C 590,80 640,260 740,150" fill="none" stroke="url(#glass-gold)" stroke-width="1.2" stroke-opacity="0.25"/>
  <path d="M 80,220 C 190,130 290,340 420,220 C 570,100 610,210 720,180" fill="none" stroke="#FFFFFF" stroke-width="0.8" stroke-opacity="0.15" stroke-dasharray="4,4"/>

  <g transform="translate(180, 100)">
    <path d="M0,-12 C-8,-4 -10,4 0,12 C10,4 8,-4 0,-12 Z" fill="url(#glass-gold)" />
    <path d="M-2,-6 C-5,-2 -5,2 0,6" fill="none" stroke="#FFFFFF" stroke-width="0.5" stroke-opacity="0.6"/>
    <text x="16" y="4" font-family="sans-serif" font-weight="200" font-size="11" fill="#E5A93C" style="letter-spacing: 2px;">TypeScript</text>
    <polygon points="0,-8 1,-1 8,0 1,1 0,8 -1,1 -8,0 -1,-1" fill="#FFFFFF" transform="translate(0, -12)"/>
  </g>

  <g transform="translate(290, 70)">
    <path d="M0,-8 C-6,-2 -7,3 0,8 C7,3 6,-2 0,-8 Z" fill="url(#glass-gold)" fill-opacity="0.6"/>
    <text x="14" y="3" font-family="sans-serif" font-weight="100" font-size="10" fill="#FFFFFF" fill-opacity="0.7" style="letter-spacing: 1px;">JavaScript</text>
  </g>

  <g transform="translate(110, 150)">
    <path d="M0,-8 C-6,-2 -7,3 0,8 C7,3 6,-2 0,-8 Z" fill="url(#glass-gold)" fill-opacity="0.4"/>
    <text x="14" y="3" font-family="sans-serif" font-weight="100" font-size="10" fill="#FFFFFF" fill-opacity="0.6" style="letter-spacing: 1px;">Swift</text>
  </g>

  <g transform="translate(230, 160)">
    <path d="M0,-8 C-6,-2 -7,3 0,8 C7,3 6,-2 0,-8 Z" fill="url(#glass-gold)" fill-opacity="0.4"/>
    <text x="14" y="3" font-family="sans-serif" font-weight="100" font-size="10" fill="#FFFFFF" fill-opacity="0.6" style="letter-spacing: 1px;">Kotlin</text>
  </g>


  <g transform="translate(430, 210)">
    <path d="M0,-14 C-10,-5 -12,5 0,14 C12,5 10,-5 0,-14 Z" fill="url(#glass-gold)" />
    <path d="M-3,-7 C-6,-2 -6,3 0,7" fill="none" stroke="#FFFFFF" stroke-width="0.7" stroke-opacity="0.8"/>
    <text x="18" y="4" font-family="sans-serif" font-weight="200" font-size="12" fill="#E5A93C" style="letter-spacing: 2px;">Go</text>
    <polygon points="0,-6 1,-1 6,0 1,1 0,6 -1,1 -6,0 -1,-1" fill="#FFFFFF" transform="translate(0, -14)"/>
  </g>

  <g transform="translate(500, 150)">
    <path d="M0,-10 C-7,-3 -8,4 0,10 C8,4 7,-3 0,-10 Z" fill="url(#glass-gold)" fill-opacity="0.7"/>
    <text x="14" y="3" font-family="sans-serif" font-weight="100" font-size="11" fill="#FFFFFF" fill-opacity="0.8" style="letter-spacing: 1px;">C#</text>
  </g>

  <g transform="translate(360, 260)">
    <path d="M0,-9 C-7,-3 -8,4 0,9 C8,4 7,-3 0,-9 Z" fill="url(#glass-gold)" fill-opacity="0.5"/>
    <text x="14" y="3" font-family="sans-serif" font-weight="100" font-size="10" fill="#FFFFFF" fill-opacity="0.7" style="letter-spacing: 1px;">Java</text>
  </g>

  <g transform="translate(380, 130)">
    <path d="M0,-8 C-6,-2 -7,3 0,8 C7,3 6,-2 0,-8 Z" fill="url(#glass-gold)" fill-opacity="0.4"/>
    <text x="14" y="3" font-family="sans-serif" font-weight="100" font-size="10" fill="#FFFFFF" fill-opacity="0.6" style="letter-spacing: 1px;">PHP</text>
  </g>

  <g transform="translate(480, 280)">
    <path d="M0,-8 C-6,-2 -7,3 0,8 C7,3 6,-2 0,-8 Z" fill="url(#glass-gold)" fill-opacity="0.4"/>
    <text x="14" y="3" font-family="sans-serif" font-weight="100" font-size="10" fill="#FFFFFF" fill-opacity="0.6" style="letter-spacing: 1px;">SQL</text>
  </g>


  <g transform="translate(630, 120)">
    <path d="M0,-12 C-8,-4 -10,4 0,12 C10,4 8,-4 0,-12 Z" fill="url(#glass-gold)" />
    <path d="M-2,-6 C-5,-2 -5,2 0,6" fill="none" stroke="#FFFFFF" stroke-width="0.5" stroke-opacity="0.6"/>
    <text x="16" y="4" font-family="sans-serif" font-weight="200" font-size="11" fill="#E5A93C" style="letter-spacing: 2px;">Rust</text>
    <polygon points="0,-8 1,-1 8,0 1,1 0,8 -1,1 -8,0 -1,-1" fill="#FFFFFF" transform="translate(0, -12)"/>
  </g>

  <g transform="translate(590, 200)">
    <path d="M0,-10 C-7,-3 -8,4 0,10 C8,4 7,-3 0,-10 Z" fill="url(#glass-gold)" fill-opacity="0.7"/>
    <text x="14" y="3" font-family="sans-serif" font-weight="100" font-size="11" fill="#FFFFFF" fill-opacity="0.8" style="letter-spacing: 1px;">Python</text>
  </g>

  <g transform="translate(680, 180)">
    <path d="M0,-8 C-6,-2 -7,3 0,8 C7,3 6,-2 0,-8 Z" fill="url(#glass-gold)" fill-opacity="0.4"/>
    <text x="14" y="3" font-family="sans-serif" font-weight="100" font-size="10" fill="#FFFFFF" fill-opacity="0.6" style="letter-spacing: 1px;">C++</text>
  </g>

  <g transform="translate(560, 80)">
    <path d="M0,-8 C-6,-2 -7,3 0,8 C7,3 6,-2 0,-8 Z" fill="url(#glass-gold)" fill-opacity="0.3"/>
    <text x="14" y="3" font-family="sans-serif" font-weight="100" font-size="10" fill="#FFFFFF" fill-opacity="0.5" style="letter-spacing: 1px;">PowerShell</text>
  </g>

  <g fill="#FFFFFF" fill-opacity="0.3">
    <circle cx="340" cy="180" r="1.5"/>
    <circle cx="520" cy="100" r="2" fill="#E5A93C" fill-opacity="0.4"/>
    <circle cx="210" cy="240" r="1"/>
  </g>
</svg>
